Patient4_TMGait_0pt3_03_right_24_EMG.mot
version=1
nRows=40
nColumns=33
inDegrees=no
endheader
time	1LAddLong	2LGlutMax	3LGlutMed	4LIliopsoas	5LSemiMemb	6LBicFemLong	7LRecFem	8LVastMed	9LVastLat	10LGasMed	11LTibAnt	12lTibPost	13LPeroneusLong	14LSol	15LExtDigLong	16LFlexDigLong	17RAddLong	18RGlutMax	19RGlutMed	20RIliopsoas	21RSemiMemb	22RBicFemLong	23RRecFem	24RVastMed	25RVastLat	26RGasMed	27RTibAnt	28RTibPost	29RPeroneusLong	30RSol	31RExtDigLong	32RFlexDigLong
44.82	-0.023346	-0.0177	-0.14328	-0.012665	-0.010529	0.21851	0.06424	-0.020447	-0.059357	-0.31723	-0.030212	-0.024109	0.625	-0.52551	-0.083771	-0.005493	0.25818	-0.16327	0.38193	-0.28091	-0.052185	-0.061798	0.15427	-0.020447	-0.00824	-0.009613	0.18585	-0.002747	-0.079346	0.10529	-0.001984	-0.013885
44.821	-0.001221	-0.035553	-0.24002	-0.020142	0.049286	0.20828	-0.023346	-0.00412	-0.1059	-0.13321	0.001831	0.013885	0.079956	-0.12848	-0.023041	-0.016022	0.27557	-0.13626	0.26093	-0.2446	-0.05661	-0.070496	0.11795	-0.025482	0.018921	-0.010376	-0.1297	-0.002136	-0.045624	0.081482	-0.002441	-0.015411
44.822	0.017395	-0.06073	-0.18005	-0.016937	0.0177	0.14053	-0.10483	0.016022	-0.10346	-0.033875	0.021515	-0.022278	-0.22507	0.17944	-0.012512	-0.014191	0.18539	-0.14191	0.045776	-0.18433	-0.068207	-0.067444	0.14496	-0.049286	-0.016937	-0.007324	-0.45731	0.000763	0.024872	0.058899	-0.002136	-0.010376
44.823	0.028076	-0.11719	0.11719	0.024872	0.003815	0.11795	-0.22919	0.026703	-0.023041	0	0.025177	0.005341	-0.24933	0.072479	-0.088501	-0.023346	0.14526	-0.16007	0.11795	-0.19287	-0.073547	-0.064545	0.15091	-0.033875	-0.004883	-0.011444	-0.28061	-0.003662	0.032043	0.055389	-0.001831	-0.013733
44.824	0.02594	-0.18616	0.072479	0.028076	0.025787	-0.058746	-0.25421	0.017853	0.12863	0.027771	-0.008392	0.013428	0.018616	0.007477	-0.079041	-0.019684	0.010223	-0.12634	-0.25894	-0.11154	-0.086517	-0.047455	0.032501	-0.02533	0.001678	-0.009766	-0.083313	-0.006409	0.039215	0.019226	-0.000916	-0.016785
44.825	0.018463	-0.19898	0.002289	0.012665	0.019073	-0.17853	-0.1915	-0.023193	0.25055	-0.010834	0.005188	0.001678	0.098724	0.19653	0.14175	0.012512	-0.103	-0.12756	-0.097809	-0.11536	-0.084839	-0.023041	-0.036163	-0.034637	0.031281	-0.001831	-0.04303	-0.002899	-0.000153	-0.062408	-0.000305	-0.003662
44.826	0.016632	-0.17822	-0.14832	0.001526	0.009613	-0.058594	-0.13794	-0.017395	0.33508	-0.044708	0.004272	-0.007324	-0.01236	0.21668	0.14603	0.020599	-0.20096	-0.13809	0.12573	0.021973	-0.076752	0.008087	-0.002136	0.015411	0.039368	-0.003052	0.074158	-0.003662	-0.056305	-0.054932	-0.002899	-0.012054
44.827	0.038147	-0.10971	-0.20874	-0.004272	0.032501	-0.17593	-0.088196	0.002136	0.36423	-0.10651	0.002136	0.007477	0.13184	0.21347	0.075531	0.018921	-0.24719	-0.1622	0.29419	0.24017	-0.03891	0.007477	0.017548	0.031433	0.023804	-0.008392	0.018311	-0.001526	-0.083313	0.003662	-0.002899	-0.010376
44.828	0.030212	-0.083618	-0.088348	0.019989	0.038605	-0.16785	-0.046387	-0.021057	0.3157	-0.078888	0.005188	0.008087	0.024872	-0.070496	0.041046	0.010834	-0.23117	-0.1004	0.1918	0.25528	-0.03006	0.036621	0.12314	0.081635	0.023956	-0.009308	-0.31952	-0.005798	-0.003052	0.033112	-0.001221	-0.003052
44.829	0.020142	-0.15335	-0.10559	0.007324	0.048065	-0.092163	0.038605	-0.009613	0.011597	-0.010376	-0.006104	0.002441	0.040131	-0.40756	-0.045776	-0.003815	-0.1947	-0.13672	0.090942	0.15884	-0.021057	0.020294	0.10895	0.11078	0.024719	-0.009155	-0.17487	-0.001678	-0.019379	0.063324	0.000305	-0.006104
44.83	0.018463	-0.079193	-0.001068	0.017548	0.035706	-0.021973	0.099487	0.003967	-0.42755	0.022125	-0.010376	-0.014801	-0.080261	-0.20203	-0.020752	-0.005035	-0.16083	-0.14786	-0.33722	-0.06897	-0.006561	0.0177	0.09964	0.13748	0.012054	-0.008545	0.14069	-0.009003	-0.028229	0.05722	-0.003052	-0.009613
44.831	0.00946	-0.055695	0.10208	0.002289	0.024719	0.044098	0.033875	-0.007477	-0.37994	0.035706	-0.013733	-0.014954	-0.023041	0.021362	-0.011444	-0.003052	-0.09201	-0.056152	0.47867	-0.2655	-0.015411	-0.012817	0.098114	0.10239	-0.002441	-0.007629	0.26382	0	-0.017853	0.055542	-0.00061	-0.00473
44.832	0.00351	0.031891	0.093536	0.006714	-0.002289	0.062866	0.034332	0.007324	-0.19913	0.022125	0.007019	-0.004272	-0.35965	0.11398	-0.03067	0.005188	-0.042725	-0.081177	0.47348	-0.018311	-0.030975	-0.02121	0.12726	0.091553	0.003815	-0.011902	0.08728	-0.003967	-0.003052	0.011292	-0.006256	-0.011902
44.833	0.002747	0.10391	-0.070648	0.019531	0.001068	0.064087	-0.00473	0.006104	-0.055084	0.023041	0.019989	-0.003204	0.072021	0.20905	0.012512	0.000763	-0.040436	-0.10452	0.066681	0.24735	-0.03067	-0.048065	0.069885	0.037537	-0.015717	-0.010071	0.25864	-0.002747	-0.009003	-0.035706	0.000458	-0.018921
44.834	-0.00061	0.16617	-0.077057	-0.008545	-0.003357	0.060272	-0.13718	0.003815	0.1239	0.007629	0.0177	0.002747	0.68207	0.10422	0.072784	-0.007629	-0.055695	-0.032806	0.13809	0.31036	-0.042114	-0.055084	-0.00885	-0.009766	-0.02121	-0.016937	0.002594	-0.002899	0.073853	-0.023804	-0.002594	-0.018921
44.835	-0.006409	0.14191	-0.064087	-0.015259	-0.00473	0.029449	-0.1651	0.023499	0.21271	0.052795	0.050507	0.003815	-0.35172	0.038605	0.1004	-0.000458	-0.053558	-0.1004	0.2475	0.20355	-0.043182	-0.043945	-0.063324	0.015411	-0.00061	-0.010986	-0.76874	0.000305	0.12741	0.015411	-0.001526	-0.018921
44.836	-0.014801	0.19638	0.008392	0.009003	0.001221	-0.049133	-0.081024	0.030212	0.18662	0.09552	0.017242	0.006866	-0.13931	0.16464	0.072937	-0.008087	0.005646	-0.10315	0.34821	0.009766	-0.049286	-0.048218	-0.007172	-0.007019	-0.014343	-0.01297	-0.48004	-0.001068	-0.000305	-0.025635	-0.001526	-0.021057
44.837	-0.009155	0.25162	-0.016785	0.001984	0.002136	-0.032349	-0.042725	0.032043	-0.029144	0.093689	-0.032501	0.013275	0.15045	0.18662	-0.004272	0.010071	0.049591	-0.10605	0.1442	-0.13123	-0.066986	-0.060272	0.032349	-0.015106	0.001526	-0.018158	-0.43655	0.00473	-0.03952	-0.12329	0.006561	-0.012817
44.838	-0.01358	0.21378	0.059052	-0.005493	0.007019	0.011444	0.033417	0.027161	-0.10895	0.19272	0.00351	0.000763	-0.015869	-0.037994	0.000458	0.039978	0.046539	-0.090485	-0.062103	-0.13275	-0.084229	-0.060425	0.032959	-0.005035	0	-0.019684	-0.19196	-0.000763	-0.096893	-0.099792	-0.002136	-0.013123
44.839	-0.095215	0.10223	0.021362	-0.001831	0.010681	-0.020294	0.043182	0.016785	-0.17578	0.065765	0.010986	0.002899	0.10788	-0.016479	0.039368	-0.003357	0.017853	-0.11658	-0.16586	-0.080719	-0.10132	-0.074768	0.014648	-0.024109	-0.007629	-0.017853	0.43488	0.00061	-0.14694	-0.072479	-0.001221	-0.018921
44.84	-0.011444	-0.030518	-0.10376	-0.00824	0.000305	-0.062103	0.037079	-0.003052	-0.26855	-0.34103	0.00351	-0.007019	-0.21133	0.14725	0.012207	-0.029297	-0.01358	-0.12421	-0.17944	0.011749	-0.09201	-0.06485	0.053406	-0.025024	0.009918	-0.016327	0.53665	0.001526	-0.12268	-0.13626	-0.002899	-0.014954
44.841	0.004578	-0.12253	-0.38727	0.010223	0.005646	-0.018768	0.23025	-0.021362	-0.31296	-0.32135	0.032501	-0.065308	-0.30487	0.06546	-0.091858	-0.009613	-0.010681	-0.16129	-0.42923	0.18723	-0.080872	-0.068665	0.056	-0.034485	-0.006104	-0.010986	0.93033	-0.001068	0.010071	-0.13596	-0.001678	-0.010071
44.842	-0.011292	-0.12161	-0.39734	0.010223	0.006866	0.088959	0.30365	-0.045013	-0.044098	0.028534	-0.007782	0.16083	0.37216	0.21805	-0.053253	0.027924	-0.00824	-0.10849	-0.45288	0.19959	-0.068512	-0.069275	0.095673	-0.049286	-0.00061	-0.010986	0.96283	0.001526	0.023956	-0.13001	-0.001678	-0.006714
44.843	-0.007324	0.063934	0.27832	0.011139	0.01709	0.10635	0.31403	-0.031738	0.25803	0.18707	-0.061798	0.21255	0.31525	0.12222	0.046387	0.052185	-0.030518	0.003662	0.11124	0.12528	-0.064545	-0.05722	0.11047	-0.037231	-0.012207	-0.010223	0.30579	-0.001221	-0.026398	-0.12558	-0.000916	-0.003662
44.844	0.012207	0.10559	0.32471	0.005798	0.013123	0.15091	0.24719	-0.005035	0.36087	-0.022583	-0.040131	-0.054474	-0.16129	0.21729	0.026245	0.080719	-0.031738	0.019379	0.43228	0.10696	-0.066223	-0.040588	0.13763	-0.032043	-0.012817	-0.010529	-0.14389	-0.005035	-0.046997	-0.054779	-0.004578	-0.006866
44.845	0.012665	-0.01709	0.21316	0.012817	0.010071	0.23438	0.15335	0.012512	0.26886	0.065308	-0.029755	0.021973	-0.11871	0.093536	-0.14679	-0.016785	-0.027618	-0.12863	0.074005	0.18204	-0.05661	-0.040588	0.10544	0.020294	0.011749	-0.010986	-0.24765	-0.005341	0.072327	-0.068054	-0.005341	-0.007782
44.846	0.013885	0.035706	0.22156	0.027313	0.007172	0.21622	0.048828	0.034485	0.093536	0.10941	-0.008087	-0.049744	-0.3804	-0.13245	-0.11505	-0.060883	0.027618	-0.12772	0.17532	0.14053	-0.014038	-0.017548	0.086365	0.048828	0.003662	-0.012054	0.27237	-0.008545	0.027466	-0.013275	-0.002899	-0.000916
44.847	0.026093	0.16174	0.18539	0	0.015564	0.14481	-0.023193	0.046692	-0.16113	0.099487	0.001526	0.00885	-0.20538	-0.29724	-0.084991	-0.035553	0.075684	-0.17807	0.24033	0.1532	-0.037689	-0.017548	0.073547	0.029144	0.009766	-0.024261	0.31403	-0.006714	-0.093994	0.050354	-0.00061	-0.0177
44.848	0.030212	0.23224	-0.032654	-0.019531	0.023956	-0.030823	-0.047607	0.022125	-0.42969	0.1088	-0.018311	-0.009308	0.12894	-0.44495	-0.02121	0.10101	0.046082	-0.17731	0.00946	0.11368	-0.053558	-0.028992	0.081787	0.00061	0.018616	-0.01358	0.29724	-0.005035	-0.019073	-0.015717	-0.002289	-0.001831
44.849	0.022888	0.19669	-0.22644	-0.007019	0.00946	-0.19379	-0.015564	-0.027161	-0.34424	0.1329	-0.024872	-0.014496	0.17242	-0.36514	0.015869	0.057983	0.011597	-0.22247	-0.19623	0.03067	-0.050659	-0.012817	0.14282	-0.00412	0.014191	-0.009155	-0.020599	-0.00412	0.040436	0.011749	-0.002747	-0.009918
44.85	0.007019	0.22232	-0.16708	0.023804	0.012512	-0.16449	0.001678	-0.048065	-0.19104	0.11536	-0.005188	-0.032806	-0.015259	-0.2713	-0.004425	-0.022125	-0.014191	-0.12909	-0.034485	-0.11826	-0.053101	-0.032501	0.19821	0.020142	-0.001068	-0.029449	-0.087433	-0.010376	-0.059967	0.1297	-0.00061	-0.014954
44.851	0.002899	0.23697	0.33936	0.037231	0.007782	-0.18509	0.030365	-0.036163	-0.35858	0.04303	-0.003967	-0.023956	-0.03479	-0.10605	0.023346	0.029602	-0.011749	-0.093689	0.24139	-0.19623	-0.050354	-0.001221	0.13489	-0.030365	0.007019	-0.026855	-0.40329	-0.009613	-0.09903	0.026855	-0.001068	-0.021057
44.852	0.007172	0.22522	0.20355	0.004883	0.016479	-0.099792	0.039368	-0.002441	-0.33066	0.022583	-0.008698	0.005188	-0.027771	0.13382	0.03479	0.036621	0.021515	-0.061493	0.17883	-0.18723	-0.04776	-0.018463	0.1387	-0.060577	0.001831	-0.02533	-0.56198	-0.00824	-0.024567	-0.053558	0.000763	-0.015259
44.853	0.013275	0.16953	0.063324	-0.02655	0.011749	0.029297	-0.04776	0.011292	-0.20798	0.010529	-0.013733	0.012665	0.019531	0.30258	0.004883	-0.011749	0.007324	-0.10742	-0.13702	-0.24033	-0.065765	-0.005798	0.10391	-0.057678	0.012207	-0.026093	-0.70526	-0.005646	0.010071	-0.066833	-0.005798	-0.011749
44.854	0.010071	0.12299	-0.059509	0.002594	0.010376	0.10178	-0.14862	0.023804	-0.14008	0.009308	0.001526	0.012512	0.078278	0.23621	0.016022	-0.015259	-0.018768	-0.11551	-0.21851	-0.26581	-0.054474	-0.001831	0.10513	-0.041962	0.025787	-0.033569	-0.81757	-0.006256	0.004425	-0.054626	0.001678	-0.010834
44.855	0.027924	0.12238	-0.1149	0.015717	0.017853	0.025024	-0.37445	0.043182	-0.035248	0.007782	0.000153	-0.004578	-0.016785	0.1297	0.037231	-0.011292	-0.001678	-0.10254	-0.21927	-0.17807	-0.061035	-0.040436	0.1268	0.004578	0.018921	-0.015411	-0.42343	-0.005798	0.10803	-0.14999	-0.001678	-0.006714
44.856	0.027313	-0.031891	-0.19989	0.010376	0.014343	-0.061798	-0.35111	0.057526	0.11475	0.017395	0.006561	-0.001984	-0.10971	0.20874	0.037842	-0.023804	-0.043182	-0.071716	-0.052185	-0.000763	-0.04425	-0.01297	0.15076	-0.02121	0.008545	-0.012665	0.14145	-0.003204	0.1297	-0.1889	-0.003967	0.00473
44.857	0.028992	-0.14603	-0.20813	-0.015106	0.015106	0.048981	-0.19714	0.05661	0.15381	0.040283	0.007019	0.020447	-0.036926	0.19974	-0.018616	-0.003204	-0.029602	0.010071	-0.17441	0.060272	-0.03891	-0.026855	0.11124	-0.036774	0.022278	-0.022888	0.3154	-0.00885	-0.000916	-0.015717	-0.007324	0.00412
44.858	0.031128	-0.12985	-0.14526	-0.02594	0.022278	0.11978	-0.034943	0.057068	0.037537	0.065308	0.006714	0.008545	0.033569	0.14343	-0.063782	-0.001221	-0.018005	0.014191	-0.12924	0.057678	-0.03479	-0.016022	0.062866	-0.020294	0.031891	-0.028534	0.74432	-0.010223	-0.10452	0.085144	-0.002136	-0.001373
44.859	0.003052	-0.085907	-0.065002	0.010223	0.007935	0.17227	0.075531	0.000153	-0.001831	0.049896	0.009918	0.012054	0.1799	0.17761	0.018005	-0.00946	-0.015259	0.039215	0.049286	-0.004272	-0.026855	0	-0.013275	-0.041351	0.034485	-0.032806	0.67566	-0.005646	-0.12192	0.16495	-0.00351	-0.001984
